{
	"asset":{
		"version":"2.0",
		"generator":"Houdini GLTF 2.0 Exporter"
	},
	"animations":[
		{
			"name":"movein",
			"channels":[
				{
					"target":{
						"node":0,
						"path":"weights"
					},
					"sampler":0
				}
			],
			"samplers":[
				{
					"input":50,
					"interpolation":"LINEAR",
					"output":49
				}
			]
		}
	],
	"accessors":[
		{
			"bufferView":0,
			"componentType":5123,
			"count":4512,
			"type":"SCALAR",
			"min":[0
			],
			"max":[767
			]
		},
		{
			"bufferView":1,
			"componentType":5126,
			"count":768,
			"type":"VEC3",
			"min":[-0.335712641,-0.337717652,1.17750001
			],
			"max":[0.340810269,0.332559556,1.22250009
			]
		},
		{
			"bufferView":2,
			"componentType":5126,
			"count":768,
			"type":"VEC3",
			"min":[-0.000270158052,-0.000263631344,0
			],
			"max":[0.000266373158,0.000267505646,0
			]
		},
		{
			"bufferView":3,
			"componentType":5126,
			"count":768,
			"type":"VEC3",
			"min":[-0.0010483861,-0.00102306157,0
			],
			"max":[0.00103367865,0.00103798509,0
			]
		},
		{
			"bufferView":4,
			"componentType":5126,
			"count":768,
			"type":"VEC3",
			"min":[-0.00228628516,-0.00223106146,0
			],
			"max":[0.00225420296,0.00226360559,0
			]
		},
		{
			"bufferView":5,
			"componentType":5126,
			"count":768,
			"type":"VEC3",
			"min":[-0.00393547863,-0.00384041667,0
			],
			"max":[0.00388024747,0.00389641523,0
			]
		},
		{
			"bufferView":6,
			"componentType":5126,
			"count":768,
			"type":"VEC3",
			"min":[-0.00594757497,-0.00580390543,0
			],
			"max":[0.00586411357,0.00588852167,0
			]
		},
		{
			"bufferView":7,
			"componentType":5126,
			"count":768,
			"type":"VEC3",
			"min":[-0.00827418268,-0.0080743134,0
			],
			"max":[0.00815806538,0.00819203258,0
			]
		},
		{
			"bufferView":8,
			"componentType":5126,
			"count":768,
			"type":"VEC3",
			"min":[-0.0108669177,-0.0106044263,0
			],
			"max":[0.0107144117,0.0107590258,0
			]
		},
		{
			"bufferView":9,
			"componentType":5126,
			"count":768,
			"type":"VEC3",
			"min":[-0.0136774033,-0.0133470148,0
			],
			"max":[0.0134854615,0.0135415792,0
			]
		},
		{
			"bufferView":10,
			"componentType":5126,
			"count":768,
			"type":"VEC3",
			"min":[-0.0166572332,-0.0162548646,0
			],
			"max":[0.0164234638,0.0164918303,0
			]
		},
		{
			"bufferView":11,
			"componentType":5126,
			"count":768,
			"type":"VEC3",
			"min":[-0.0197580345,-0.0192807652,0
			],
			"max":[0.01948075,0.0195618272,0
			]
		},
		{
			"bufferView":12,
			"componentType":5126,
			"count":768,
			"type":"VEC3",
			"min":[-0.0229314156,-0.022377491,0
			],
			"max":[0.0226095989,0.0227037072,0
			]
		},
		{
			"bufferView":13,
			"componentType":5126,
			"count":768,
			"type":"VEC3",
			"min":[-0.0261289924,-0.0254978277,0
			],
			"max":[0.0257623047,0.0258695185,0
			]
		},
		{
			"bufferView":14,
			"componentType":5126,
			"count":768,
			"type":"VEC3",
			"min":[-0.0293023735,-0.0285945535,0
			],
			"max":[0.0288911462,0.0290113986,0
			]
		},
		{
			"bufferView":15,
			"componentType":5126,
			"count":768,
			"type":"VEC3",
			"min":[-0.0324031748,-0.0316204578,0
			],
			"max":[0.0319484323,0.0320814252,0
			]
		},
		{
			"bufferView":16,
			"componentType":5126,
			"count":768,
			"type":"VEC3",
			"min":[-0.0353830159,-0.0345283039,0
			],
			"max":[0.0348864496,0.0350316465,0
			]
		},
		{
			"bufferView":17,
			"componentType":5126,
			"count":768,
			"type":"VEC3",
			"min":[-0.0381934941,-0.0372709036,0
			],
			"max":[0.0376574844,0.0378142297,0
			]
		},
		{
			"bufferView":18,
			"componentType":5126,
			"count":768,
			"type":"VEC3",
			"min":[-0.0407862253,-0.0398010053,0
			],
			"max":[0.0402138382,0.040381223,0
			]
		},
		{
			"bufferView":19,
			"componentType":5126,
			"count":768,
			"type":"VEC3",
			"min":[-0.0431128331,-0.042071417,0
			],
			"max":[0.0425077975,0.0426847041,0
			]
		},
		{
			"bufferView":20,
			"componentType":5126,
			"count":768,
			"type":"VEC3",
			"min":[-0.0451249331,-0.044034902,0
			],
			"max":[0.0444916487,0.0446768403,0
			]
		},
		{
			"bufferView":21,
			"componentType":5126,
			"count":768,
			"type":"VEC3",
			"min":[-0.0467741266,-0.0456442609,0
			],
			"max":[0.0461176932,0.0463096499,0
			]
		},
		{
			"bufferView":22,
			"componentType":5126,
			"count":768,
			"type":"VEC3",
			"min":[-0.0480120257,-0.0468522608,0
			],
			"max":[0.0473382324,0.0475352705,0
			]
		},
		{
			"bufferView":23,
			"componentType":5126,
			"count":768,
			"type":"VEC3",
			"min":[-0.0487902537,-0.0476116911,0
			],
			"max":[0.0481055379,0.0483057499,0
			]
		},
		{
			"bufferView":24,
			"componentType":5126,
			"count":768,
			"type":"VEC3",
			"min":[-0.0490604118,-0.0478753224,0
			],
			"max":[0.0483718961,0.0485732257,0
			]
		},
		{
			"bufferView":25,
			"componentType":5126,
			"count":768,
			"type":"VEC3",
			"min":[-0.048811987,-0.0476329029,0
			],
			"max":[0.0481269658,0.0483272672,0
			]
		},
		{
			"bufferView":26,
			"componentType":5126,
			"count":768,
			"type":"VEC3",
			"min":[-0.0480951071,-0.0469333306,0
			],
			"max":[0.0474201441,0.0476174951,0
			]
		},
		{
			"bufferView":27,
			"componentType":5126,
			"count":768,
			"type":"VEC3",
			"min":[-0.0469523445,-0.0458181798,0
			],
			"max":[0.0462934226,0.0464861095,0
			]
		},
		{
			"bufferView":28,
			"componentType":5126,
			"count":768,
			"type":"VEC3",
			"min":[-0.0454263091,-0.0443290025,0
			],
			"max":[0.0447887927,0.0449752212,0
			]
		},
		{
			"bufferView":29,
			"componentType":5126,
			"count":768,
			"type":"VEC3",
			"min":[-0.0435595661,-0.0425073542,0
			],
			"max":[0.0429482535,0.0431270003,0
			]
		},
		{
			"bufferView":30,
			"componentType":5126,
			"count":768,
			"type":"VEC3",
			"min":[-0.0413947254,-0.0403948016,0
			],
			"max":[0.0408137888,0.0409836769,0
			]
		},
		{
			"bufferView":31,
			"componentType":5126,
			"count":768,
			"type":"VEC3",
			"min":[-0.0389743485,-0.0380329043,0
			],
			"max":[0.0384273902,0.0385873318,0
			]
		},
		{
			"bufferView":32,
			"componentType":5126,
			"count":768,
			"type":"VEC3",
			"min":[-0.0363410451,-0.0354632027,0
			],
			"max":[0.0358310342,0.035980165,0
			]
		},
		{
			"bufferView":33,
			"componentType":5126,
			"count":768,
			"type":"VEC3",
			"min":[-0.0335373878,-0.0327272713,0
			],
			"max":[0.0330667272,0.0332043469,0
			]
		},
		{
			"bufferView":34,
			"componentType":5126,
			"count":768,
			"type":"VEC3",
			"min":[-0.0306059755,-0.0298666656,0
			],
			"max":[0.0301764607,0.0303020477,0
			]
		},
		{
			"bufferView":35,
			"componentType":5126,
			"count":768,
			"type":"VEC3",
			"min":[-0.0275893807,-0.0269229412,0
			],
			"max":[0.027202189,0.027315408,0
			]
		},
		{
			"bufferView":36,
			"componentType":5126,
			"count":768,
			"type":"VEC3",
			"min":[-0.0245302059,-0.0239376612,0
			],
			"max":[0.0241859555,0.0242866278,0
			]
		},
		{
			"bufferView":37,
			"componentType":5126,
			"count":768,
			"type":"VEC3",
			"min":[-0.0214710273,-0.0209523812,0
			],
			"max":[0.0211697072,0.0212578177,0
			]
		},
		{
			"bufferView":38,
			"componentType":5126,
			"count":768,
			"type":"VEC3",
			"min":[-0.0184544362,-0.0180086568,0
			],
			"max":[0.0181954503,0.018271178,0
			]
		},
		{
			"bufferView":39,
			"componentType":5126,
			"count":768,
			"type":"VEC3",
			"min":[-0.0155230202,-0.0151480511,0
			],
			"max":[0.0153051764,0.0153688788,0
			]
		},
		{
			"bufferView":40,
			"componentType":5126,
			"count":768,
			"type":"VEC3",
			"min":[-0.0127193704,-0.0124121234,0
			],
			"max":[0.012540862,0.0125930607,0
			]
		},
		{
			"bufferView":41,
			"componentType":5126,
			"count":768,
			"type":"VEC3",
			"min":[-0.0100860596,-0.00984242558,0
			],
			"max":[0.00994451344,0.00998592377,0
			]
		},
		{
			"bufferView":42,
			"componentType":5126,
			"count":768,
			"type":"VEC3",
			"min":[-0.00766569376,-0.00748052076,0
			],
			"max":[0.00755811483,0.00758957863,0
			]
		},
		{
			"bufferView":43,
			"componentType":5126,
			"count":768,
			"type":"VEC3",
			"min":[-0.00550083816,-0.00536796451,0
			],
			"max":[0.00542365015,0.0054462254,0
			]
		},
		{
			"bufferView":44,
			"componentType":5126,
			"count":768,
			"type":"VEC3",
			"min":[-0.00363411009,-0.00354632735,0
			],
			"max":[0.00358310342,0.00359803438,0
			]
		},
		{
			"bufferView":45,
			"componentType":5126,
			"count":768,
			"type":"VEC3",
			"min":[-0.00210806727,-0.00205715001,0
			],
			"max":[0.00207848847,0.00208714604,0
			]
		},
		{
			"bufferView":46,
			"componentType":5126,
			"count":768,
			"type":"VEC3",
			"min":[-0.000965312123,-0.000941991806,0
			],
			"max":[0.000951766968,0.000955730677,0
			]
		},
		{
			"bufferView":47,
			"componentType":5126,
			"count":768,
			"type":"VEC3",
			"min":[-0.000248432159,-0.000242426991,0
			],
			"max":[0.000244945288,0.000245958567,0
			]
		},
		{
			"bufferView":48,
			"componentType":5126,
			"count":768,
			"type":"VEC3",
			"min":[0,0,0
			],
			"max":[0,0,0
			]
		},
		{
			"componentType":5126,
			"count":2256,
			"type":"SCALAR",
			"sparse":{
				"count":47,
				"values":{
					"bufferView":50
				},
				"indices":{
					"bufferView":49,
					"componentType":5125
				}
			},
			"min":[0
			],
			"max":[1
			]
		},
		{
			"bufferView":51,
			"componentType":5126,
			"count":48,
			"type":"SCALAR",
			"min":[0
			],
			"max":[1.95833337
			]
		}
	],
	"buffers":[
		{
			"uri":"cross_loop_data.bin",
			"byteLength":451960,
			"name":"main_buffer"
		}
	],
	"bufferViews":[
		{
			"buffer":0,
			"byteLength":9024,
			"target":34963
		},
		{
			"buffer":0,
			"byteOffset":9024,
			"byteLength":9216,
			"target":34962
		},
		{
			"buffer":0,
			"byteOffset":18240,
			"byteLength":9216,
			"target":34962
		},
		{
			"buffer":0,
			"byteOffset":27456,
			"byteLength":9216,
			"target":34962
		},
		{
			"buffer":0,
			"byteOffset":36672,
			"byteLength":9216,
			"target":34962
		},
		{
			"buffer":0,
			"byteOffset":45888,
			"byteLength":9216,
			"target":34962
		},
		{
			"buffer":0,
			"byteOffset":55104,
			"byteLength":9216,
			"target":34962
		},
		{
			"buffer":0,
			"byteOffset":64320,
			"byteLength":9216,
			"target":34962
		},
		{
			"buffer":0,
			"byteOffset":73536,
			"byteLength":9216,
			"target":34962
		},
		{
			"buffer":0,
			"byteOffset":82752,
			"byteLength":9216,
			"target":34962
		},
		{
			"buffer":0,
			"byteOffset":91968,
			"byteLength":9216,
			"target":34962
		},
		{
			"buffer":0,
			"byteOffset":101184,
			"byteLength":9216,
			"target":34962
		},
		{
			"buffer":0,
			"byteOffset":110400,
			"byteLength":9216,
			"target":34962
		},
		{
			"buffer":0,
			"byteOffset":119616,
			"byteLength":9216,
			"target":34962
		},
		{
			"buffer":0,
			"byteOffset":128832,
			"byteLength":9216,
			"target":34962
		},
		{
			"buffer":0,
			"byteOffset":138048,
			"byteLength":9216,
			"target":34962
		},
		{
			"buffer":0,
			"byteOffset":147264,
			"byteLength":9216,
			"target":34962
		},
		{
			"buffer":0,
			"byteOffset":156480,
			"byteLength":9216,
			"target":34962
		},
		{
			"buffer":0,
			"byteOffset":165696,
			"byteLength":9216,
			"target":34962
		},
		{
			"buffer":0,
			"byteOffset":174912,
			"byteLength":9216,
			"target":34962
		},
		{
			"buffer":0,
			"byteOffset":184128,
			"byteLength":9216,
			"target":34962
		},
		{
			"buffer":0,
			"byteOffset":193344,
			"byteLength":9216,
			"target":34962
		},
		{
			"buffer":0,
			"byteOffset":202560,
			"byteLength":9216,
			"target":34962
		},
		{
			"buffer":0,
			"byteOffset":211776,
			"byteLength":9216,
			"target":34962
		},
		{
			"buffer":0,
			"byteOffset":220992,
			"byteLength":9216,
			"target":34962
		},
		{
			"buffer":0,
			"byteOffset":230208,
			"byteLength":9216,
			"target":34962
		},
		{
			"buffer":0,
			"byteOffset":239424,
			"byteLength":9216,
			"target":34962
		},
		{
			"buffer":0,
			"byteOffset":248640,
			"byteLength":9216,
			"target":34962
		},
		{
			"buffer":0,
			"byteOffset":257856,
			"byteLength":9216,
			"target":34962
		},
		{
			"buffer":0,
			"byteOffset":267072,
			"byteLength":9216,
			"target":34962
		},
		{
			"buffer":0,
			"byteOffset":276288,
			"byteLength":9216,
			"target":34962
		},
		{
			"buffer":0,
			"byteOffset":285504,
			"byteLength":9216,
			"target":34962
		},
		{
			"buffer":0,
			"byteOffset":294720,
			"byteLength":9216,
			"target":34962
		},
		{
			"buffer":0,
			"byteOffset":303936,
			"byteLength":9216,
			"target":34962
		},
		{
			"buffer":0,
			"byteOffset":313152,
			"byteLength":9216,
			"target":34962
		},
		{
			"buffer":0,
			"byteOffset":322368,
			"byteLength":9216,
			"target":34962
		},
		{
			"buffer":0,
			"byteOffset":331584,
			"byteLength":9216,
			"target":34962
		},
		{
			"buffer":0,
			"byteOffset":340800,
			"byteLength":9216,
			"target":34962
		},
		{
			"buffer":0,
			"byteOffset":350016,
			"byteLength":9216,
			"target":34962
		},
		{
			"buffer":0,
			"byteOffset":359232,
			"byteLength":9216,
			"target":34962
		},
		{
			"buffer":0,
			"byteOffset":368448,
			"byteLength":9216,
			"target":34962
		},
		{
			"buffer":0,
			"byteOffset":377664,
			"byteLength":9216,
			"target":34962
		},
		{
			"buffer":0,
			"byteOffset":386880,
			"byteLength":9216,
			"target":34962
		},
		{
			"buffer":0,
			"byteOffset":396096,
			"byteLength":9216,
			"target":34962
		},
		{
			"buffer":0,
			"byteOffset":405312,
			"byteLength":9216,
			"target":34962
		},
		{
			"buffer":0,
			"byteOffset":414528,
			"byteLength":9216,
			"target":34962
		},
		{
			"buffer":0,
			"byteOffset":423744,
			"byteLength":9216,
			"target":34962
		},
		{
			"buffer":0,
			"byteOffset":432960,
			"byteLength":9216,
			"target":34962
		},
		{
			"buffer":0,
			"byteOffset":442176,
			"byteLength":9216,
			"target":34962
		},
		{
			"buffer":0,
			"byteOffset":451392,
			"byteLength":188
		},
		{
			"buffer":0,
			"byteOffset":451580,
			"byteLength":188
		},
		{
			"buffer":0,
			"byteOffset":451768,
			"byteLength":192
		}
	],
	"nodes":[
		{
			"name":"box_object1",
			"mesh":0
		}
	],
	"meshes":[
		{
			"primitives":[
				{
					"attributes":{
						"POSITION":1
					},
					"indices":0,
					"targets":[
						{
							"POSITION":2
						},
						{
							"POSITION":3
						},
						{
							"POSITION":4
						},
						{
							"POSITION":5
						},
						{
							"POSITION":6
						},
						{
							"POSITION":7
						},
						{
							"POSITION":8
						},
						{
							"POSITION":9
						},
						{
							"POSITION":10
						},
						{
							"POSITION":11
						},
						{
							"POSITION":12
						},
						{
							"POSITION":13
						},
						{
							"POSITION":14
						},
						{
							"POSITION":15
						},
						{
							"POSITION":16
						},
						{
							"POSITION":17
						},
						{
							"POSITION":18
						},
						{
							"POSITION":19
						},
						{
							"POSITION":20
						},
						{
							"POSITION":21
						},
						{
							"POSITION":22
						},
						{
							"POSITION":23
						},
						{
							"POSITION":24
						},
						{
							"POSITION":25
						},
						{
							"POSITION":26
						},
						{
							"POSITION":27
						},
						{
							"POSITION":28
						},
						{
							"POSITION":29
						},
						{
							"POSITION":30
						},
						{
							"POSITION":31
						},
						{
							"POSITION":32
						},
						{
							"POSITION":33
						},
						{
							"POSITION":34
						},
						{
							"POSITION":35
						},
						{
							"POSITION":36
						},
						{
							"POSITION":37
						},
						{
							"POSITION":38
						},
						{
							"POSITION":39
						},
						{
							"POSITION":40
						},
						{
							"POSITION":41
						},
						{
							"POSITION":42
						},
						{
							"POSITION":43
						},
						{
							"POSITION":44
						},
						{
							"POSITION":45
						},
						{
							"POSITION":46
						},
						{
							"POSITION":47
						},
						{
							"POSITION":48
						}
					]
				}
			],
			"name":"explodedview2",
			"extras":{
				"targetNames":["","","","","","","","","","","","","","","","","","","","","","","","","","","","","","","","","","","","","","","","","","","","","","",""
				]
			}
		}
	],
	"scenes":[
		{
			"nodes":[0
			]
		}
	],
	"scene":0
}
