{
	"asset":{
		"version":"2.0",
		"generator":"Houdini GLTF 2.0 Exporter"
	},
	"accessors":[
		{
			"bufferView":0,
			"componentType":5123,
			"count":432,
			"type":"SCALAR",
			"min":[0
			],
			"max":[79
			]
		},
		{
			"bufferView":1,
			"componentType":5126,
			"count":80,
			"type":"VEC3",
			"min":[-0.5,-0.5,0
			],
			"max":[0.5,0.5,6.2575264
			]
		}
	],
	"buffers":[
		{
			"uri":"scene4_data.bin",
			"byteLength":1824,
			"name":"main_buffer"
		}
	],
	"bufferViews":[
		{
			"buffer":0,
			"byteLength":864,
			"target":34963
		},
		{
			"buffer":0,
			"byteOffset":864,
			"byteLength":960,
			"target":34962
		}
	],
	"nodes":[
		{
			"name":"box_object1",
			"mesh":0
		}
	],
	"meshes":[
		{
			"primitives":[
				{
					"attributes":{
						"POSITION":1
					},
					"indices":0
				}
			],
			"name":"transform4"
		}
	],
	"scenes":[
		{
			"nodes":[0
			]
		}
	],
	"scene":0
}
